<?xml version="1.0" encoding="UTF-8" standalone="no"?>
<svg width="1024" height="1024" viewBox="0 0 1024 1024" xmlns="http://www.w3.org/2000/svg">
  <defs>
    <!-- Background gradient -->
    <linearGradient id="bg" x1="0" y1="0" x2="0" y2="1">
      <stop offset="0%" stop-color="#060A11"/>
      <stop offset="100%" stop-color="#0A1422"/>
    </linearGradient>
    <!-- Orbit stroke gradient (subtle, brighter on lower-right quadrant) -->
    <radialGradient id="orbitGrad" cx="68%" cy="66%" r="65%">
      <stop offset="0%" stop-color="#2FB4FF" stop-opacity="1"/>
      <stop offset="70%" stop-color="#2FB4FF" stop-opacity="0.85"/>
      <stop offset="100%" stop-color="#2FB4FF" stop-opacity="0.0"/>
    </radialGradient>
    <!-- Glow blur filter -->
    <filter id="glow" x="-50%" y="-50%" width="200%" height="200%">
      <feGaussianBlur stdDeviation="22" result="b"/>
    </filter>
    <!-- Central sphere gradient -->
    <radialGradient id="core" cx="50%" cy="50%" r="65%">
      <stop offset="0%" stop-color="#FFFFFF"/>
      <stop offset="45%" stop-color="#B6EFFF"/>
      <stop offset="100%" stop-color="#5BD2FF"/>
    </radialGradient>
    <!-- Soft bloom around core -->
    <radialGradient id="bloom" cx="50%" cy="50%" r="50%">
      <stop offset="0%" stop-color="#B6EFFF" stop-opacity="0.55"/>
      <stop offset="100%" stop-color="#B6EFFF" stop-opacity="0"/>
    </radialGradient>
  </defs>
  
  <!-- Background -->
  <rect x="0" y="0" width="1024" height="1024" fill="url(#bg)"/>
  
  <!-- Optional faint starfield -->
  <g id="stars" opacity="0.35">
    <circle cx="654.77" cy="25.61" r="0.72" fill="#B8D9FF" opacity="0.38"/>
    <circle cx="754.15" cy="692.94" r="1.21" fill="#B8D9FF" opacity="0.30"/>
    <circle cx="432.05" cy="30.51" r="0.67" fill="#B8D9FF" opacity="0.55"/>
    <circle cx="27.17" cy="203.61" r="1.02" fill="#B8D9FF" opacity="0.58"/>
    <circle cx="225.73" cy="603.41" r="1.15" fill="#B8D9FF" opacity="0.25"/>
    <circle cx="825.16" cy="714.89" r="0.77" fill="#B8D9FF" opacity="0.34"/>
    <circle cx="980.19" cy="344.67" r="0.57" fill="#B8D9FF" opacity="0.31"/>
    <circle cx="867.83" cy="618.22" r="1.15" fill="#B8D9FF" opacity="0.69"/>
    <circle cx="549.10" cy="996.47" r="0.80" fill="#B8D9FF" opacity="0.58"/>
    <circle cx="849.31" cy="633.36" r="1.19" fill="#B8D9FF" opacity="0.60"/>
    <circle cx="721.48" cy="46.92" r="0.68" fill="#B8D9FF" opacity="0.42"/>
    <circle cx="81.71" cy="238.38" r="0.58" fill="#B8D9FF" opacity="0.42"/>
    <circle cx="650.94" cy="373.59" r="0.80" fill="#B8D9FF" opacity="0.38"/>
    <circle cx="273.39" cy="959.13" r="1.02" fill="#B8D9FF" opacity="0.62"/>
    <circle cx="175.25" cy="746.63" r="0.63" fill="#B8D9FF" opacity="0.48"/>
    <circle cx="1013.27" cy="655.36" r="0.95" fill="#B8D9FF" opacity="0.66"/>
    <circle cx="863.08" cy="794.62" r="0.68" fill="#B8D9FF" opacity="0.27"/>
    <circle cx="323.02" cy="274.17" r="0.67" fill="#B8D9FF" opacity="0.82"/>
    <circle cx="897.40" cy="322.23" r="1.02" fill="#B8D9FF" opacity="0.49"/>
    <circle cx="936.50" cy="469.86" r="0.71" fill="#B8D9FF" opacity="0.40"/>
    <circle cx="574.84" cy="269.05" r="0.97" fill="#B8D9FF" opacity="0.79"/>
    <circle cx="408.99" cy="224.58" r="1.30" fill="#B8D9FF" opacity="0.56"/>
    <circle cx="93.09" cy="48.25" r="0.59" fill="#B8D9FF" opacity="0.63"/>
    <circle cx="811.09" cy="432.29" r="0.55" fill="#B8D9FF" opacity="0.48"/>
    <circle cx="1020.03" cy="541.81" r="1.28" fill="#B8D9FF" opacity="0.77"/>
    <circle cx="11.76" cy="738.02" r="1.05" fill="#B8D9FF" opacity="0.57"/>
    <circle cx="273.23" cy="656.34" r="0.59" fill="#B8D9FF" opacity="0.51"/>
    <circle cx="464.61" cy="976.71" r="1.20" fill="#B8D9FF" opacity="0.41"/>
    <circle cx="512.60" cy="182.94" r="1.23" fill="#B8D9FF" opacity="0.77"/>
    <circle cx="305.61" cy="654.28" r="0.99" fill="#B8D9FF" opacity="0.34"/>
    <circle cx="780.81" cy="552.32" r="1.12" fill="#B8D9FF" opacity="0.57"/>
    <circle cx="0.59" cy="331.94" r="0.52" fill="#B8D9FF" opacity="0.81"/>
    <circle cx="899.81" cy="851.63" r="0.75" fill="#B8D9FF" opacity="0.28"/>
    <circle cx="899.08" cy="969.68" r="0.57" fill="#B8D9FF" opacity="0.54"/>
    <circle cx="70.87" cy="778.86" r="1.11" fill="#B8D9FF" opacity="0.33"/>
    <circle cx="486.69" cy="563.00" r="0.71" fill="#B8D9FF" opacity="0.77"/>
    <circle cx="433.29" cy="216.88" r="0.93" fill="#B8D9FF" opacity="0.69"/>
    <circle cx="205.98" cy="319.20" r="1.30" fill="#B8D9FF" opacity="0.64"/>
    <circle cx="448.61" cy="530.00" r="0.60" fill="#B8D9FF" opacity="0.38"/>
    <circle cx="346.20" cy="602.43" r="0.68" fill="#B8D9FF" opacity="0.38"/>
    <circle cx="72.70" cy="646.25" r="0.68" fill="#B8D9FF" opacity="0.79"/>
    <circle cx="880.27" cy="72.56" r="0.69" fill="#B8D9FF" opacity="0.65"/>
    <circle cx="219.38" cy="135.49" r="1.25" fill="#B8D9FF" opacity="0.59"/>
    <circle cx="484.02" cy="803.45" r="1.15" fill="#B8D9FF" opacity="0.36"/>
    <circle cx="99.26" cy="441.40" r="0.84" fill="#B8D9FF" opacity="0.53"/>
    <circle cx="746.57" cy="689.53" r="1.29" fill="#B8D9FF" opacity="0.31"/>
    <circle cx="412.28" cy="347.45" r="1.19" fill="#B8D9FF" opacity="0.40"/>
    <circle cx="194.77" cy="459.38" r="0.84" fill="#B8D9FF" opacity="0.42"/>
    <circle cx="255.80" cy="945.42" r="0.85" fill="#B8D9FF" opacity="0.77"/>
    <circle cx="563.53" cy="51.80" r="1.30" fill="#B8D9FF" opacity="0.75"/>
    <circle cx="992.25" cy="948.60" r="1.18" fill="#B8D9FF" opacity="0.35"/>
    <circle cx="497.30" cy="218.88" r="0.82" fill="#B8D9FF" opacity="0.29"/>
    <circle cx="388.07" cy="1008.96" r="0.71" fill="#B8D9FF" opacity="0.72"/>
    <circle cx="465.93" cy="433.16" r="1.27" fill="#B8D9FF" opacity="0.85"/>
    <circle cx="569.11" cy="735.65" r="0.62" fill="#B8D9FF" opacity="0.43"/>
    <circle cx="991.96" cy="593.08" r="0.93" fill="#B8D9FF" opacity="0.70"/>
    <circle cx="58.54" cy="598.20" r="0.90" fill="#B8D9FF" opacity="0.76"/>
    <circle cx="161.21" cy="983.84" r="0.56" fill="#B8D9FF" opacity="0.36"/>
    <circle cx="609.32" cy="691.42" r="0.69" fill="#B8D9FF" opacity="0.32"/>
    <circle cx="911.65" cy="252.12" r="0.98" fill="#B8D9FF" opacity="0.62"/>
    <circle cx="429.29" cy="597.68" r="0.92" fill="#B8D9FF" opacity="0.81"/>
    <circle cx="209.16" cy="733.38" r="0.69" fill="#B8D9FF" opacity="0.49"/>
    <circle cx="687.81" cy="307.20" r="0.75" fill="#B8D9FF" opacity="0.70"/>
    <circle cx="74.28" cy="469.28" r="1.30" fill="#B8D9FF" opacity="0.85"/>
    <circle cx="75.02" cy="218.27" r="0.71" fill="#B8D9FF" opacity="0.81"/>
    <circle cx="902.00" cy="900.37" r="0.80" fill="#B8D9FF" opacity="0.34"/>
    <circle cx="853.75" cy="720.42" r="0.99" fill="#B8D9FF" opacity="0.84"/>
    <circle cx="669.67" cy="8.01" r="1.15" fill="#B8D9FF" opacity="0.43"/>
    <circle cx="679.31" cy="961.46" r="0.61" fill="#B8D9FF" opacity="0.32"/>
    <circle cx="109.60" cy="566.50" r="0.72" fill="#B8D9FF" opacity="0.61"/>
    <circle cx="734.83" cy="208.48" r="1.01" fill="#B8D9FF" opacity="0.41"/>
    <circle cx="500.26" cy="927.06" r="1.18" fill="#B8D9FF" opacity="0.31"/>
    <circle cx="433.74" cy="283.32" r="0.50" fill="#B8D9FF" opacity="0.71"/>
    <circle cx="652.40" cy="268.24" r="1.09" fill="#B8D9FF" opacity="0.58"/>
    <circle cx="437.95" cy="9.90" r="0.56" fill="#B8D9FF" opacity="0.78"/>
    <circle cx="925.62" cy="558.68" r="1.17" fill="#B8D9FF" opacity="0.60"/>
    <circle cx="151.65" cy="130.50" r="0.75" fill="#B8D9FF" opacity="0.79"/>
    <circle cx="815.23" cy="881.36" r="1.22" fill="#B8D9FF" opacity="0.38"/>
    <circle cx="255.52" cy="105.26" r="1.12" fill="#B8D9FF" opacity="0.78"/>
    <circle cx="416.13" cy="635.56" r="0.62" fill="#B8D9FF" opacity="0.81"/>
    <circle cx="885.36" cy="999.63" r="1.15" fill="#B8D9FF" opacity="0.78"/>
    <circle cx="25.38" cy="754.24" r="0.77" fill="#B8D9FF" opacity="0.81"/>
    <circle cx="821.49" cy="884.80" r="1.15" fill="#B8D9FF" opacity="0.41"/>
    <circle cx="806.27" cy="110.69" r="1.20" fill="#B8D9FF" opacity="0.77"/>
    <circle cx="227.77" cy="836.18" r="0.87" fill="#B8D9FF" opacity="0.43"/>
    <circle cx="814.43" cy="233.06" r="0.52" fill="#B8D9FF" opacity="0.37"/>
    <circle cx="336.14" cy="885.10" r="1.27" fill="#B8D9FF" opacity="0.42"/>
    <circle cx="656.88" cy="409.27" r="1.28" fill="#B8D9FF" opacity="0.57"/>
    <circle cx="961.78" cy="118.11" r="1.28" fill="#B8D9FF" opacity="0.36"/>
    <circle cx="985.64" cy="271.84" r="0.59" fill="#B8D9FF" opacity="0.51"/>
    <circle cx="746.03" cy="321.21" r="0.98" fill="#B8D9FF" opacity="0.56"/>
    <circle cx="394.44" cy="590.43" r="0.70" fill="#B8D9FF" opacity="0.68"/>
    <circle cx="1.73" cy="947.79" r="0.93" fill="#B8D9FF" opacity="0.68"/>
    <circle cx="759.76" cy="686.72" r="0.79" fill="#B8D9FF" opacity="0.29"/>
    <circle cx="680.18" cy="338.12" r="0.75" fill="#B8D9FF" opacity="0.76"/>
    <circle cx="737.03" cy="307.53" r="0.75" fill="#B8D9FF" opacity="0.50"/>
    <circle cx="412.06" cy="302.75" r="0.60" fill="#B8D9FF" opacity="0.50"/>
    <circle cx="962.93" cy="693.57" r="1.22" fill="#B8D9FF" opacity="0.62"/>
    <circle cx="308.17" cy="561.09" r="0.50" fill="#B8D9FF" opacity="0.42"/>
    <circle cx="440.21" cy="593.90" r="1.02" fill="#B8D9FF" opacity="0.53"/>
    <circle cx="452.77" cy="218.83" r="0.88" fill="#B8D9FF" opacity="0.79"/>
    <circle cx="815.13" cy="173.76" r="0.57" fill="#B8D9FF" opacity="0.56"/>
    <circle cx="648.13" cy="343.23" r="1.15" fill="#B8D9FF" opacity="0.70"/>
    <circle cx="688.94" cy="230.03" r="0.66" fill="#B8D9FF" opacity="0.26"/>
    <circle cx="250.72" cy="486.54" r="1.18" fill="#B8D9FF" opacity="0.29"/>
    <circle cx="424.39" cy="644.88" r="0.66" fill="#B8D9FF" opacity="0.67"/>
    <circle cx="506.24" cy="249.84" r="1.02" fill="#B8D9FF" opacity="0.25"/>
    <circle cx="768.99" cy="788.53" r="0.59" fill="#B8D9FF" opacity="0.51"/>
    <circle cx="180.11" cy="980.96" r="0.91" fill="#B8D9FF" opacity="0.28"/>
    <circle cx="255.18" cy="868.70" r="0.87" fill="#B8D9FF" opacity="0.73"/>
    <circle cx="683.60" cy="1011.60" r="0.98" fill="#B8D9FF" opacity="0.82"/>
    <circle cx="912.82" cy="627.36" r="1.08" fill="#B8D9FF" opacity="0.55"/>
    <circle cx="850.50" cy="561.02" r="1.22" fill="#B8D9FF" opacity="0.70"/>
    <circle cx="486.07" cy="265.41" r="0.70" fill="#B8D9FF" opacity="0.63"/>
    <circle cx="784.19" cy="533.81" r="1.00" fill="#B8D9FF" opacity="0.41"/>
    <circle cx="79.34" cy="292.59" r="0.72" fill="#B8D9FF" opacity="0.44"/>
    <circle cx="553.12" cy="141.70" r="0.69" fill="#B8D9FF" opacity="0.67"/>
    <circle cx="723.37" cy="65.77" r="0.83" fill="#B8D9FF" opacity="0.58"/>
    <circle cx="425.75" cy="211.80" r="0.84" fill="#B8D9FF" opacity="0.79"/>
    <circle cx="598.10" cy="712.22" r="1.19" fill="#B8D9FF" opacity="0.71"/>
  </g>


  <!-- Core bloom -->
  <circle cx="512.0" cy="450.56" r="144.0" fill="url(#bloom)"/>
  <!-- Core sphere -->
  <circle cx="512.0" cy="450.56" r="90" fill="url(#core)"/>
  <path d="M 741.813 257.724 L 742.928 258.395 L 744.029 259.083 L 745.115 259.787 L 746.186 260.508 L 747.242 261.246 L 748.284 262.001 L 749.310 262.772 L 750.321 263.560 L 751.316 264.365 L 752.296 265.186 L 753.261 266.024 L 754.209 266.879 L 755.141 267.751 L 756.057 268.639 L 756.957 269.544 L 757.841 270.466 L 758.707 271.405 L 759.557 272.361 L 760.391 273.333 L 761.207 274.322 L 762.006 275.328 L 762.787 276.350 L 763.551 277.389 L 764.298 278.445 L 765.027 279.518 L 765.738 280.607 L 766.431 281.713 L 767.106 282.835 L 767.762 283.975 L 768.400 285.130 L 769.020 286.303 L 769.620 287.491 L 770.202 288.697 L 770.765 289.918 L 771.309 291.157 L 771.834 292.411 L 772.339 293.682 L 772.825 294.969 L 773.291 296.273 L 773.738 297.593 L 774.164 298.929 L 774.571 300.281 L 774.957 301.649 L 775.323 303.033 L 775.669 304.433 L 775.995 305.849 L 776.299 307.280 L 776.583 308.728 L 776.847 310.191 L 777.089 311.670 L 777.310 313.165 L 777.510 314.674 L 777.689 316.200 L 777.846 317.740 L 777.982 319.296 L 778.097 320.867 L 778.189 322.453 L 778.260 324.055 L 778.309 325.671 L 778.336 327.301 L 778.341 328.947 L 778.324 330.607 L 778.284 332.282 L 778.223 333.971 L 778.138 335.674 L 778.032 337.391 L 777.902 339.123 L 777.750 340.868 L 777.576 342.628 L 777.378 344.401 L 777.158 346.187 L 776.914 347.988 L 776.648 349.801 L 776.359 351.628 L 776.046 353.467 L 775.710 355.320 L 775.351 357.185 L 774.969 359.063 L 774.564 360.954 L 774.135 362.857 L 773.682 364.772 L 773.206 366.699 L 772.707 368.638 L 772.184 370.589 L 771.637 372.551 L 771.067 374.525 L 770.474 376.510 L 769.856 378.506 L 769.215 380.513 L 768.550 382.531 L 767.862 384.559 L 767.150 386.598 L 766.414 388.646 L 765.654 390.705 L 764.871 392.774 L 764.064 394.852 L 763.234 396.940 L 762.379 399.037 L 761.501 401.143 L 760.600 403.257 L 759.674 405.381 L 758.725 407.513 L 757.753 409.653 L 756.757 411.801 L 755.738 413.957 L 754.695 416.120 L 753.628 418.291 L 752.539 420.469 L 751.426 422.654 L 750.289 424.845 L 749.130 427.043 L 747.947 429.248 L 746.742 431.458 L 745.513 433.674 L 744.261 435.896 L 742.987 438.123 L 741.690 440.355 L 740.370 442.592 L 739.028 444.833 L 737.663 447.079 L 736.276 449.329 L 734.866 451.583 L 733.434 453.840 L 731.981 456.101 L 730.505 458.365 L 729.007 460.631 L 727.488 462.900 L 725.947 465.172 L 724.385 467.446 L 722.801 469.721 L 721.197 471.998 L 719.571 474.276 L 717.924 476.556 L 716.257 478.836 L 714.569 481.117 L 712.860 483.397 L 711.131 485.678 L 709.383 487.959 L 707.614 490.239 L 705.825 492.518 L 704.017 494.796 L 702.190 497.072 L 700.343 499.347 L 698.477 501.620 L 696.593 503.891 L 694.689 506.159 L 692.768 508.425 L 690.828 510.687 L 688.870 512.946 L 686.894 515.202 L 684.901 517.454 L 682.890 519.701 L 680.862 521.944 L 678.817 524.183 L 676.755 526.417 L 674.677 528.645 L 672.582 530.868 L 670.472 533.085 L 668.345 535.296 L 666.203 537.501 L 664.046 539.699 L 661.874 541.890 L 659.687 544.074 L 657.485 546.251 L 655.269 548.420 L 653.039 550.581 L 650.795 552.734 L 648.538 554.879 L 646.267 557.014 L 643.983 559.141 L 641.687 561.258 L 639.378 563.366 L 637.057 565.464 L 634.724 567.553 L 632.379 569.630 L 630.024 571.698 L 627.657 573.754 L 625.279 575.800 L 622.891 577.834 L 620.492 579.856 L 618.084 581.867 L 615.666 583.866 L 613.239 585.852 L 610.803 587.826 L 608.358 589.787 L 605.904 591.735 L 603.443 593.670 L 600.974 595.591 L 598.497 597.499 L 596.013 599.393 L 593.522 601.273 L 591.024 603.138 L 588.520 604.989 L 586.010 606.825 L 583.495 608.646 L 580.974 610.451 L 578.448 612.242 L 575.917 614.016 L 573.382 615.775 L 570.843 617.518 L 568.300 619.244 L 565.753 620.954 L 563.203 622.648 L 560.650 624.325 L 558.095 625.984 L 555.537 627.627 L 552.977 629.252 L 550.416 630.860 L 547.853 632.450 L 545.290 634.022 L 542.725 635.576 L 540.160 637.112 L 537.595 638.630 L 535.031 640.129 L 532.466 641.609 L 529.903 643.071 L 527.340 644.513 L 524.779 645.937 L 522.220 647.342 L 519.663 648.727 L 517.108 650.092 L 514.555 651.438 L 512.006 652.764 L 509.459 654.071 L 506.917 655.357 L 504.378 656.624 L 501.843 657.870 L 499.312 659.096 L 496.786 660.301 L 494.265 661.486 L 491.749 662.651 L 489.238 663.794 L 486.734 664.917 L 484.235 666.019 L 481.743 667.101 L 479.257 668.161 L 476.778 669.200 L 474.307 670.218 L 471.843 671.215 L 469.386 672.190 L 466.937 673.144 L 464.497 674.077 L 462.065 674.988 L 459.641 675.878 L 457.227 676.747 L 454.822 677.593 L 452.426 678.418 L 450.040 679.222 L 447.664 680.004 L 445.298 680.764 L 442.942 681.502 L 440.597 682.219 L 438.263 682.914 L 435.940 683.587 L 433.628 684.239 L 431.328 684.868 L 429.040 685.476 L 426.763 686.062 L 424.499 686.626 L 422.247 687.169 L 420.008 687.690 L 417.782 688.189 L 415.568 688.666 L 413.368 689.121 L 411.181 689.555 L 409.008 689.967 L 406.849 690.358 L 404.703 690.727 L 402.572 691.074 L 400.455 691.400 L 398.352 691.704 L 396.264 691.987 L 394.191 692.248 L 392.134 692.488 L 390.091 692.707 L 388.063 692.904 L 386.051 693.081 L 384.055 693.236 L 382.075 693.370 L 380.110 693.483 L 378.161 693.575 L 376.229 693.646 L 374.313 693.696 L 372.414 693.726 L 370.531 693.735 L 368.665 693.723 L 366.816 693.691 L 364.984 693.638 L 363.169 693.565 L 361.371 693.472 L 359.591 693.359 L 357.828 693.225 L 356.083 693.072 L 354.355 692.898 L 352.645 692.705 L 350.953 692.492 L 349.279 692.260 L 347.623 692.008 L 345.985 691.737 L 344.365 691.446 L 342.764 691.136 L 341.181 690.808 L 339.616 690.460 L 338.070 690.093 L 336.543 689.708 L 335.034 689.304 L 333.545 688.881 L 332.073 688.440 L 330.621 687.981 L 329.188 687.504 L 327.774 687.008 L 326.378 686.495 L 325.002 685.964 L 323.645 685.415 L 322.307 684.849 L 320.988 684.265 L 319.689 683.664 L 318.409 683.046 L 317.148 682.411 L 315.906 681.759 L 314.684 681.090 L 313.481 680.404 L 312.298 679.702 L 311.134 678.984 L 309.990 678.250 L 308.865 677.499 L 307.759 676.732 L 306.673 675.950 L 305.607 675.152 L 304.560 674.338 L 303.533 673.509 L 302.525 672.665 L 301.537 671.805 L 300.568 670.931 L 299.619 670.042 L 298.689 669.138 L 297.779 668.219 L 296.888 667.286 L 296.017 666.339 L 295.165 665.377 L 294.333 664.402 L 293.520 663.412 L 292.727 662.409 L 291.953 661.393 L 291.198 660.363 L 290.463 659.319 L 289.747 658.263 L 289.051 657.193 L 288.373 656.111 L 287.715 655.016 L 287.077 653.908 L 286.457 652.788 L 285.857 651.656 L 285.275 650.511 L 284.713 649.354 L 284.170 648.186 L 283.646 647.006 L 283.140 645.814 L 282.654 644.611 L 282.187 643.396 L 281.738 642.171 L 281.308 640.934 L 280.897 639.686 L 280.505 638.428 L 280.131 637.159 L 279.776 635.880 L 279.439 634.590 L 279.121 633.290 L 278.821 631.980 L 278.539 630.661 L 278.276 629.331 L 278.031 627.992 L 277.805 626.643 L 277.596 625.285 L 277.405 623.918 L 277.233 622.542 L 277.078 621.156 L 276.941 619.762 L 276.822 618.360 L 276.721 616.948 L 276.638 615.529 L 276.572 614.101 L 276.523 612.665 L 276.492 611.221 L 276.479 609.769 L 276.483 608.309 L 276.504 606.842 L 276.542 605.367 L 276.597 603.885 L 276.670 602.395 L 276.759 600.899 L 276.865 599.396 L 276.988 597.885 L 277.128 596.368 L 277.285 594.845 L 277.458 593.315 L 277.647 591.779 L 277.853 590.236 L 278.076 588.687 L 278.314 587.133 L 278.569 585.572 L 278.840 584.006 L 279.127 582.435 L 279.431 580.857 L 279.749 579.275 L 280.084 577.687 L 280.435 576.094 L 280.801 574.496 L 281.183 572.893 L 281.580 571.286 L 281.992 569.674 L 282.420 568.057 L 282.863 566.436 L 283.322 564.810 L 283.795 563.180 L 284.284 561.547 L 284.787 559.909 L 285.305 558.267 L 285.838 556.622 L 286.386 554.973 L 286.948 553.320 L 287.525 551.664 L 288.116 550.005 L 288.721 548.343 L 289.341 546.677 L 289.975 545.008 L 290.623 543.337 L 291.285 541.663 L 291.961 539.986 L 292.650 538.306 L 293.354 536.625 L 294.071 534.940 L 294.801 533.254 L 295.546 531.565 L 296.303 529.874 L 297.074 528.181 L 297.858 526.487 L 298.656 524.790 L 299.466 523.092 L 300.290 521.393 L 301.126 519.692 L 301.975 517.989 L 302.837 516.285 L 303.712 514.580 L 304.599 512.874 L 305.498 511.167 L 306.411 509.459 L 307.335 507.750 L 308.272 506.041 L 309.220 504.331 L 310.181 502.620 L 311.154 500.909 L 312.139 499.198 L 313.135 497.486 L 314.144 495.774 L 315.164 494.062 L 316.195 492.350 L 317.238 490.638 L 318.293 488.926 L 319.359 487.215 L 320.436 485.504 L 321.524 483.793 L 322.624 482.083 L 323.734 480.373 L 324.855 478.664 L 325.987 476.956 L 327.130 475.249 L 328.284 473.543 L 329.448 471.837 L 330.623 470.133 L 331.808 468.430 L 333.003 466.728 L 334.209 465.028 L 335.425 463.328 L 336.651 461.631 L 337.888 459.935 L 339.134 458.240 L 340.390 456.548 L 341.655 454.857 L 342.931 453.168 L 344.216 451.481 L 345.511 449.796 L 346.815 448.113 L 348.129 446.433 L 349.452 444.754 L 350.784 443.078 L 352.125 441.404 L 353.476 439.733 L 354.835 438.065 L 356.204 436.399 L 357.581 434.735 L 358.967 433.075 L 360.362 431.417 L 361.765 429.762 L 363.177 428.111 L 364.597 426.462 L 366.026 424.817 L 367.463 423.174 L 368.909 421.535 L 370.362 419.899 L 371.824 418.267 L 373.293 416.638 L 374.771 415.013 L 376.256 413.392 L 377.750 411.774 L 379.250 410.160 L 380.759 408.549 L 382.275 406.943 L 383.799 405.340 L 385.330 403.742 L 386.868 402.148 L 388.413 400.557 L 389.966 398.972 L 391.526 397.390 L 393.093 395.813 L 394.667 394.240 L 396.247 392.672 L 397.835 391.108 L 399.429 389.549 L 401.030 387.994 L 402.637 386.445 L 404.251 384.900 L 405.872 383.360 L 407.498 381.825 L 409.131 380.295 L 410.770 378.771 L 412.416 377.251 L 414.067 375.736 L 415.724 374.227 L 417.388 372.724 L 419.057 371.225 L 420.731 369.732 L 422.412 368.245 L 424.098 366.763 L 425.789 365.287 L 427.487 363.817 L 429.189 362.352 L 430.897 360.893 L 432.610 359.441 L 434.328 357.994 L 436.051 356.553 L 437.779 355.118 L 439.512 353.690 L 441.250 352.268 L 442.993 350.852 L 444.740 349.442 L 446.492 348.039 L 448.249 346.642 L 450.010 345.252 L 451.775 343.869 L 453.545 342.492 L 455.319 341.122 L 457.097 339.759 L 458.880 338.402 L 460.666 337.053 L 462.456 335.710 L 464.250 334.375 L 466.048 333.046 L 467.850 331.725 L 469.655 330.411 L 471.464 329.105 L 473.276 327.805 L 475.091 326.514 L 476.910 325.229 L 478.732 323.953 L 480.558 322.683 L 482.386 321.422 L 484.218 320.168 L 486.052 318.922 L 487.889 317.684 L 489.729 316.454 L 491.572 315.232 L 493.417 314.018 L 495.265 312.812 L 497.115 311.614 L 498.968 310.424 L 500.823 309.243 L 502.680 308.070 L 504.539 306.906 L 506.400 305.750 L 508.264 304.602 L 510.129 303.464 L 511.996 302.334 L 513.864 301.212 L 515.735 300.100 L 517.606 298.996 L 519.480 297.901 L 521.354 296.816 L 523.230 295.739 L 525.108 294.671 L 526.986 293.613 L 528.865 292.564 L 530.745 291.524 L 532.627 290.494 L 534.509 289.473 L 536.391 288.462 L 538.274 287.460 L 540.158 286.468 L 542.042 285.485 L 543.927 284.512 L 545.812 283.550 L 547.697 282.597 L 549.582 281.654 L 551.467 280.721 L 553.352 279.798 L 555.236 278.885 L 557.121 277.983 L 559.005 277.090 L 560.888 276.209 L 562.771 275.337 L 564.654 274.476 L 566.535 273.626 L 568.416 272.786 L 570.296 271.957 L 572.175 271.139 L 574.052 270.331 L 575.929 269.535 L 577.804 268.749 L 579.678 267.974 L 581.550 267.211 L 583.420 266.458 L 585.289 265.717 L 587.156 264.987 L 589.021 264.268 L 590.885 263.561 L 592.746 262.865 L 594.604 262.181 L 596.461 261.508 L 598.315 260.847 L 600.166 260.198 L 602.015 259.561 L 603.861 258.935 L 605.705 258.322 L 607.545 257.720 L 609.382 257.130 L 611.217 256.553 L 613.047 255.988 L 614.875 255.435 L 616.699 254.894 L 618.520 254.366 L 620.336 253.850 L 622.149 253.347 L 623.958 252.856 L 625.764 252.378 L 627.564 251.913 L 629.361 251.460 L 631.153 251.021 L 632.941 250.594 L 634.725 250.180 L 636.503 249.780 L 638.277 249.392 L 640.046 249.018 L 641.809 248.656 L 643.568 248.309 L 645.321 247.974 L 647.069 247.653 L 648.811 247.346 L 650.548 247.052 L 652.279 246.771 L 654.004 246.504 L 655.723 246.252 L 657.436 246.012 L 659.143 245.787 L 660.843 245.576 L 662.537 245.379 L 664.224 245.195 L 665.904 245.026 L 667.578 244.871 L 669.244 244.731 L 670.904 244.604 L 672.556 244.492 L 674.201 244.395 L 675.838 244.311 L 677.467 244.243 L 679.089 244.189 L 680.703 244.150 L 682.309 244.125 L 683.907 244.115 L 685.496 244.120 L 687.077 244.140 L 688.650 244.175 L 690.213 244.225 L 691.768 244.290 L 693.314 244.370 L 694.851 244.465 L 696.378 244.576 L 697.897 244.701 L 699.405 244.843 L 700.904 244.999 L 702.393 245.171 L 703.873 245.358 L 705.342 245.561 L 706.801 245.779 L 708.250 246.014 L 709.688 246.263 L 711.115 246.529 L 712.532 246.810 L 713.938 247.107 L 715.333 247.420 L 716.716 247.749 L 718.088 248.093 L 719.449 248.454 L 720.798 248.831 L 722.136 249.224 L 723.461 249.633 L 724.774 250.058 L 726.076 250.499 L 727.364 250.957 L 728.641 251.430 L 729.904 251.920 L 731.155 252.427 L 732.393 252.949 L 733.618 253.489 L 734.830 254.044 L 736.028 254.616 L 737.213 255.205 L 738.384 255.810 L 739.541 256.431 L 740.684 257.069 L 741.813 257.724 Z" fill="none" stroke="url(#orbitGrad)" stroke-width="16" filter="url(#glow)" stroke-linecap="round"/>
  <path d="M 676.700 312.361 L 677.431 312.898 L 678.151 313.447 L 678.860 314.008 L 679.557 314.580 L 680.244 315.164 L 680.918 315.760 L 681.582 316.367 L 682.233 316.985 L 682.873 317.616 L 683.501 318.257 L 684.117 318.911 L 684.721 319.576 L 685.313 320.252 L 685.893 320.940 L 686.461 321.639 L 687.016 322.350 L 687.559 323.072 L 688.090 323.805 L 688.608 324.550 L 689.113 325.306 L 689.605 326.074 L 690.085 326.853 L 690.552 327.643 L 691.006 328.444 L 691.446 329.257 L 691.874 330.081 L 692.289 330.916 L 692.690 331.762 L 693.078 332.619 L 693.452 333.487 L 693.813 334.366 L 694.160 335.256 L 694.494 336.157 L 694.814 337.069 L 695.120 337.992 L 695.412 338.925 L 695.691 339.870 L 695.955 340.825 L 696.206 341.790 L 696.442 342.767 L 696.664 343.753 L 696.872 344.751 L 697.066 345.758 L 697.245 346.776 L 697.410 347.805 L 697.560 348.843 L 697.696 349.892 L 697.817 350.951 L 697.924 352.020 L 698.015 353.100 L 698.093 354.189 L 698.155 355.288 L 698.202 356.396 L 698.235 357.515 L 698.253 358.643 L 698.255 359.781 L 698.243 360.929 L 698.216 362.085 L 698.173 363.252 L 698.115 364.427 L 698.042 365.612 L 697.954 366.806 L 697.851 368.009 L 697.732 369.221 L 697.598 370.441 L 697.449 371.671 L 697.284 372.909 L 697.104 374.156 L 696.908 375.412 L 696.697 376.676 L 696.471 377.948 L 696.228 379.228 L 695.971 380.517 L 695.698 381.814 L 695.409 383.118 L 695.105 384.431 L 694.785 385.751 L 694.449 387.079 L 694.098 388.415 L 693.731 389.758 L 693.349 391.108 L 692.951 392.465 L 692.537 393.830 L 692.108 395.201 L 691.663 396.580 L 691.203 397.965 L 690.726 399.357 L 690.235 400.755 L 689.727 402.160 L 689.204 403.571 L 688.666 404.988 L 688.112 406.411 L 687.542 407.841 L 686.957 409.275 L 686.356 410.716 L 685.740 412.162 L 685.109 413.614 L 684.461 415.071 L 683.799 416.533 L 683.121 418.000 L 682.428 419.472 L 681.720 420.948 L 680.996 422.430 L 680.257 423.915 L 679.503 425.405 L 678.733 426.900 L 677.949 428.398 L 677.150 429.900 L 676.335 431.406 L 675.506 432.916 L 674.662 434.429 L 673.803 435.945 L 672.929 437.465 L 672.040 438.987 L 671.137 440.513 L 670.219 442.041 L 669.287 443.572 L 668.340 445.105 L 667.379 446.641 L 666.403 448.178 L 665.413 449.718 L 664.409 451.259 L 663.391 452.802 L 662.359 454.347 L 661.313 455.893 L 660.254 457.440 L 659.180 458.989 L 658.093 460.538 L 656.992 462.088 L 655.878 463.638 L 654.750 465.189 L 653.610 466.740 L 652.456 468.291 L 651.288 469.842 L 650.108 471.393 L 648.915 472.943 L 647.710 474.493 L 646.491 476.042 L 645.260 477.591 L 644.017 479.138 L 642.762 480.684 L 641.494 482.228 L 640.214 483.772 L 638.922 485.313 L 637.618 486.852 L 636.303 488.390 L 634.976 489.925 L 633.637 491.458 L 632.288 492.988 L 630.927 494.516 L 629.555 496.041 L 628.172 497.563 L 626.778 499.081 L 625.374 500.596 L 623.959 502.108 L 622.534 503.616 L 621.098 505.120 L 619.653 506.621 L 618.197 508.117 L 616.732 509.608 L 615.257 511.096 L 613.773 512.578 L 612.279 514.056 L 610.776 515.529 L 609.265 516.997 L 607.744 518.459 L 606.214 519.916 L 604.676 521.367 L 603.130 522.813 L 601.576 524.253 L 600.013 525.686 L 598.443 527.114 L 596.864 528.535 L 595.279 529.949 L 593.685 531.357 L 592.085 532.758 L 590.478 534.152 L 588.863 535.539 L 587.242 536.919 L 585.615 538.291 L 583.981 539.655 L 582.341 541.012 L 580.695 542.361 L 579.043 543.702 L 577.385 545.035 L 575.722 546.359 L 574.054 547.675 L 572.380 548.983 L 570.702 550.281 L 569.019 551.571 L 567.331 552.852 L 565.639 554.124 L 563.942 555.387 L 562.242 556.640 L 560.538 557.883 L 558.830 559.117 L 557.118 560.342 L 555.403 561.556 L 553.686 562.760 L 551.965 563.955 L 550.241 565.138 L 548.515 566.312 L 546.787 567.475 L 545.056 568.627 L 543.324 569.769 L 541.589 570.900 L 539.853 572.020 L 538.115 573.129 L 536.377 574.226 L 534.637 575.313 L 532.896 576.388 L 531.155 577.451 L 529.413 578.503 L 527.670 579.543 L 525.928 580.572 L 524.185 581.588 L 522.443 582.593 L 520.701 583.586 L 518.960 584.566 L 517.219 585.534 L 515.480 586.490 L 513.741 587.433 L 512.004 588.364 L 510.268 589.282 L 508.534 590.188 L 506.802 591.081 L 505.072 591.961 L 503.344 592.828 L 501.618 593.682 L 499.895 594.523 L 498.175 595.351 L 496.457 596.166 L 494.743 596.968 L 493.032 597.756 L 491.324 598.531 L 489.620 599.293 L 487.920 600.041 L 486.223 600.775 L 484.531 601.496 L 482.843 602.204 L 481.159 602.897 L 479.480 603.577 L 477.805 604.244 L 476.136 604.896 L 474.471 605.534 L 472.812 606.159 L 471.159 606.770 L 469.510 607.367 L 467.868 607.949 L 466.231 608.518 L 464.600 609.073 L 462.976 609.613 L 461.358 610.140 L 459.746 610.652 L 458.141 611.150 L 456.543 611.634 L 454.951 612.104 L 453.367 612.559 L 451.789 613.000 L 450.220 613.427 L 448.657 613.840 L 447.102 614.239 L 445.555 614.623 L 444.016 614.993 L 442.485 615.349 L 440.962 615.690 L 439.447 616.017 L 437.941 616.330 L 436.443 616.628 L 434.954 616.913 L 433.473 617.183 L 432.002 617.438 L 430.539 617.680 L 429.086 617.907 L 427.642 618.120 L 426.207 618.319 L 424.782 618.503 L 423.366 618.674 L 421.960 618.830 L 420.564 618.972 L 419.178 619.100 L 417.802 619.214 L 416.436 619.314 L 415.080 619.400 L 413.734 619.471 L 412.399 619.529 L 411.075 619.573 L 409.761 619.603 L 408.458 619.619 L 407.166 619.621 L 405.884 619.610 L 404.614 619.584 L 403.355 619.545 L 402.107 619.492 L 400.870 619.426 L 399.644 619.346 L 398.430 619.252 L 397.228 619.145 L 396.036 619.025 L 394.857 618.891 L 393.689 618.744 L 392.533 618.583 L 391.389 618.409 L 390.257 618.222 L 389.137 618.022 L 388.029 617.809 L 386.933 617.582 L 385.850 617.343 L 384.778 617.091 L 383.719 616.826 L 382.672 616.548 L 381.638 616.257 L 380.616 615.954 L 379.607 615.638 L 378.610 615.310 L 377.626 614.969 L 376.654 614.615 L 375.695 614.250 L 374.749 613.872 L 373.816 613.482 L 372.896 613.080 L 371.988 612.665 L 371.094 612.239 L 370.212 611.801 L 369.344 611.351 L 368.488 610.889 L 367.646 610.416 L 366.816 609.930 L 366.000 609.434 L 365.197 608.926 L 364.407 608.406 L 363.630 607.875 L 362.867 607.333 L 362.116 606.780 L 361.379 606.216 L 360.656 605.641 L 359.945 605.055 L 359.248 604.458 L 358.564 603.850 L 357.894 603.232 L 357.237 602.603 L 356.593 601.964 L 355.963 601.314 L 355.346 600.654 L 354.743 599.984 L 354.153 599.303 L 353.576 598.613 L 353.013 597.912 L 352.463 597.202 L 351.927 596.481 L 351.404 595.751 L 350.894 595.012 L 350.398 594.263 L 349.915 593.504 L 349.446 592.736 L 348.990 591.959 L 348.548 591.173 L 348.119 590.377 L 347.703 589.573 L 347.300 588.759 L 346.911 587.937 L 346.536 587.106 L 346.174 586.266 L 345.825 585.418 L 345.489 584.562 L 345.167 583.697 L 344.857 582.823 L 344.562 581.942 L 344.279 581.052 L 344.010 580.154 L 343.753 579.249 L 343.510 578.335 L 343.281 577.414 L 343.064 576.485 L 342.860 575.549 L 342.670 574.605 L 342.492 573.654 L 342.328 572.695 L 342.176 571.729 L 342.038 570.757 L 341.912 569.777 L 341.800 568.790 L 341.700 567.796 L 341.613 566.796 L 341.539 565.789 L 341.478 564.775 L 341.429 563.755 L 341.394 562.729 L 341.371 561.696 L 341.360 560.657 L 341.362 559.612 L 341.377 558.561 L 341.404 557.504 L 341.444 556.441 L 341.496 555.372 L 341.561 554.298 L 341.638 553.218 L 341.728 552.133 L 341.829 551.042 L 341.943 549.946 L 342.070 548.845 L 342.208 547.739 L 342.358 546.627 L 342.521 545.511 L 342.696 544.390 L 342.882 543.264 L 343.081 542.133 L 343.292 540.997 L 343.514 539.858 L 343.748 538.713 L 343.994 537.565 L 344.252 536.412 L 344.521 535.255 L 344.802 534.094 L 345.095 532.929 L 345.399 531.760 L 345.715 530.587 L 346.042 529.410 L 346.380 528.230 L 346.730 527.046 L 347.091 525.859 L 347.463 524.668 L 347.847 523.474 L 348.241 522.276 L 348.647 521.076 L 349.064 519.872 L 349.491 518.666 L 349.930 517.456 L 350.379 516.244 L 350.839 515.029 L 351.310 513.811 L 351.792 512.591 L 352.284 511.368 L 352.787 510.143 L 353.301 508.916 L 353.825 507.686 L 354.359 506.454 L 354.904 505.220 L 355.459 503.984 L 356.024 502.745 L 356.599 501.506 L 357.185 500.264 L 357.780 499.020 L 358.386 497.775 L 359.002 496.529 L 359.627 495.281 L 360.263 494.031 L 360.908 492.780 L 361.563 491.528 L 362.228 490.275 L 362.902 489.021 L 363.586 487.765 L 364.279 486.509 L 364.982 485.252 L 365.694 483.994 L 366.415 482.735 L 367.146 481.476 L 367.886 480.216 L 368.635 478.956 L 369.393 477.695 L 370.160 476.433 L 370.936 475.172 L 371.721 473.910 L 372.515 472.648 L 373.318 471.387 L 374.129 470.125 L 374.949 468.863 L 375.778 467.601 L 376.615 466.340 L 377.461 465.079 L 378.315 463.818 L 379.177 462.557 L 380.048 461.297 L 380.927 460.038 L 381.814 458.779 L 382.710 457.521 L 383.613 456.264 L 384.524 455.008 L 385.443 453.752 L 386.370 452.498 L 387.305 451.244 L 388.248 449.992 L 389.198 448.741 L 390.156 447.491 L 391.122 446.242 L 392.095 444.995 L 393.075 443.749 L 394.063 442.505 L 395.058 441.263 L 396.060 440.021 L 397.070 438.782 L 398.086 437.545 L 399.110 436.309 L 400.140 435.075 L 401.178 433.843 L 402.222 432.613 L 403.274 431.385 L 404.332 430.160 L 405.396 428.936 L 406.467 427.715 L 407.545 426.496 L 408.630 425.280 L 409.720 424.066 L 410.817 422.855 L 411.921 421.646 L 413.030 420.440 L 414.146 419.236 L 415.268 418.036 L 416.396 416.838 L 417.529 415.643 L 418.669 414.451 L 419.815 413.262 L 420.966 412.076 L 422.123 410.894 L 423.286 409.714 L 424.454 408.538 L 425.628 407.365 L 426.807 406.196 L 427.992 405.029 L 429.182 403.867 L 430.377 402.708 L 431.578 401.552 L 432.783 400.401 L 433.994 399.253 L 435.210 398.108 L 436.430 396.968 L 437.656 395.831 L 438.886 394.699 L 440.121 393.570 L 441.361 392.446 L 442.605 391.326 L 443.854 390.210 L 445.107 389.098 L 446.365 387.990 L 447.627 386.887 L 448.894 385.789 L 450.164 384.694 L 451.439 383.605 L 452.718 382.520 L 454.001 381.439 L 455.288 380.363 L 456.578 379.292 L 457.873 378.226 L 459.171 377.165 L 460.473 376.109 L 461.778 375.057 L 463.087 374.011 L 464.400 372.970 L 465.716 371.934 L 467.035 370.903 L 468.358 369.877 L 469.684 368.857 L 471.013 367.842 L 472.345 366.832 L 473.680 365.828 L 475.018 364.830 L 476.358 363.837 L 477.702 362.849 L 479.048 361.868 L 480.397 360.892 L 481.749 359.922 L 483.103 358.958 L 484.460 357.999 L 485.819 357.047 L 487.180 356.101 L 488.543 355.161 L 489.909 354.226 L 491.277 353.299 L 492.646 352.377 L 494.018 351.461 L 495.392 350.552 L 496.767 349.649 L 498.145 348.753 L 499.523 347.863 L 500.904 346.980 L 502.286 346.103 L 503.669 345.233 L 505.054 344.370 L 506.440 343.514 L 507.828 342.664 L 509.216 341.821 L 510.606 340.985 L 511.997 340.156 L 513.388 339.334 L 514.781 338.519 L 516.174 337.711 L 517.568 336.910 L 518.963 336.117 L 520.358 335.330 L 521.754 334.552 L 523.151 333.780 L 524.547 333.016 L 525.944 332.259 L 527.341 331.510 L 528.738 330.768 L 530.136 330.034 L 531.533 329.308 L 532.930 328.589 L 534.327 327.879 L 535.724 327.176 L 537.120 326.480 L 538.516 325.793 L 539.912 325.114 L 541.307 324.443 L 542.701 323.779 L 544.095 323.124 L 545.488 322.477 L 546.879 321.839 L 548.270 321.208 L 549.660 320.586 L 551.049 319.972 L 552.437 319.367 L 553.823 318.770 L 555.208 318.181 L 556.592 317.601 L 557.974 317.030 L 559.355 316.467 L 560.734 315.913 L 562.111 315.368 L 563.486 314.831 L 564.859 314.304 L 566.231 313.785 L 567.600 313.275 L 568.967 312.774 L 570.332 312.282 L 571.694 311.799 L 573.054 311.326 L 574.412 310.861 L 575.767 310.406 L 577.119 309.959 L 578.469 309.522 L 579.816 309.095 L 581.160 308.677 L 582.500 308.268 L 583.838 307.869 L 585.173 307.479 L 586.504 307.098 L 587.832 306.728 L 589.157 306.367 L 590.478 306.015 L 591.795 305.674 L 593.109 305.342 L 594.419 305.020 L 595.725 304.707 L 597.027 304.405 L 598.325 304.112 L 599.619 303.830 L 600.909 303.558 L 602.194 303.295 L 603.475 303.043 L 604.751 302.800 L 606.023 302.568 L 607.290 302.347 L 608.553 302.135 L 609.811 301.934 L 611.063 301.743 L 612.311 301.562 L 613.553 301.392 L 614.791 301.232 L 616.023 301.082 L 617.249 300.944 L 618.470 300.815 L 619.686 300.697 L 620.896 300.590 L 622.100 300.494 L 623.298 300.408 L 624.490 300.333 L 625.677 300.268 L 626.857 300.215 L 628.031 300.172 L 629.198 300.140 L 630.359 300.119 L 631.514 300.109 L 632.662 300.110 L 633.803 300.121 L 634.938 300.144 L 636.066 300.178 L 637.186 300.222 L 638.300 300.278 L 639.406 300.345 L 640.506 300.423 L 641.597 300.512 L 642.682 300.613 L 643.759 300.724 L 644.828 300.847 L 645.889 300.981 L 646.943 301.127 L 647.989 301.283 L 649.026 301.451 L 650.056 301.631 L 651.077 301.821 L 652.090 302.023 L 653.095 302.237 L 654.091 302.462 L 655.079 302.698 L 656.057 302.946 L 657.028 303.205 L 657.989 303.476 L 658.941 303.758 L 659.884 304.052 L 660.818 304.357 L 661.743 304.674 L 662.658 305.002 L 663.564 305.342 L 664.461 305.694 L 665.348 306.057 L 666.225 306.432 L 667.092 306.818 L 667.949 307.216 L 668.797 307.626 L 669.634 308.047 L 670.461 308.480 L 671.278 308.924 L 672.084 309.380 L 672.880 309.848 L 673.666 310.327 L 674.440 310.818 L 675.204 311.321 L 675.957 311.835 L 676.700 312.361 Z" fill="none" stroke="url(#orbitGrad)" stroke-width="16" filter="url(#glow)" stroke-linecap="round"/>
  <path d="M 741.813 257.724 L 742.928 258.395 L 744.029 259.083 L 745.115 259.787 L 746.186 260.508 L 747.242 261.246 L 748.284 262.001 L 749.310 262.772 L 750.321 263.560 L 751.316 264.365 L 752.296 265.186 L 753.261 266.024 L 754.209 266.879 L 755.141 267.751 L 756.057 268.639 L 756.957 269.544 L 757.841 270.466 L 758.707 271.405 L 759.557 272.361 L 760.391 273.333 L 761.207 274.322 L 762.006 275.328 L 762.787 276.350 L 763.551 277.389 L 764.298 278.445 L 765.027 279.518 L 765.738 280.607 L 766.431 281.713 L 767.106 282.835 L 767.762 283.975 L 768.400 285.130 L 769.020 286.303 L 769.620 287.491 L 770.202 288.697 L 770.765 289.918 L 771.309 291.157 L 771.834 292.411 L 772.339 293.682 L 772.825 294.969 L 773.291 296.273 L 773.738 297.593 L 774.164 298.929 L 774.571 300.281 L 774.957 301.649 L 775.323 303.033 L 775.669 304.433 L 775.995 305.849 L 776.299 307.280 L 776.583 308.728 L 776.847 310.191 L 777.089 311.670 L 777.310 313.165 L 777.510 314.674 L 777.689 316.200 L 777.846 317.740 L 777.982 319.296 L 778.097 320.867 L 778.189 322.453 L 778.260 324.055 L 778.309 325.671 L 778.336 327.301 L 778.341 328.947 L 778.324 330.607 L 778.284 332.282 L 778.223 333.971 L 778.138 335.674 L 778.032 337.391 L 777.902 339.123 L 777.750 340.868 L 777.576 342.628 L 777.378 344.401 L 777.158 346.187 L 776.914 347.988 L 776.648 349.801 L 776.359 351.628 L 776.046 353.467 L 775.710 355.320 L 775.351 357.185 L 774.969 359.063 L 774.564 360.954 L 774.135 362.857 L 773.682 364.772 L 773.206 366.699 L 772.707 368.638 L 772.184 370.589 L 771.637 372.551 L 771.067 374.525 L 770.474 376.510 L 769.856 378.506 L 769.215 380.513 L 768.550 382.531 L 767.862 384.559 L 767.150 386.598 L 766.414 388.646 L 765.654 390.705 L 764.871 392.774 L 764.064 394.852 L 763.234 396.940 L 762.379 399.037 L 761.501 401.143 L 760.600 403.257 L 759.674 405.381 L 758.725 407.513 L 757.753 409.653 L 756.757 411.801 L 755.738 413.957 L 754.695 416.120 L 753.628 418.291 L 752.539 420.469 L 751.426 422.654 L 750.289 424.845 L 749.130 427.043 L 747.947 429.248 L 746.742 431.458 L 745.513 433.674 L 744.261 435.896 L 742.987 438.123 L 741.690 440.355 L 740.370 442.592 L 739.028 444.833 L 737.663 447.079 L 736.276 449.329 L 734.866 451.583 L 733.434 453.840 L 731.981 456.101 L 730.505 458.365 L 729.007 460.631 L 727.488 462.900 L 725.947 465.172 L 724.385 467.446 L 722.801 469.721 L 721.197 471.998 L 719.571 474.276 L 717.924 476.556 L 716.257 478.836 L 714.569 481.117 L 712.860 483.397 L 711.131 485.678 L 709.383 487.959 L 707.614 490.239 L 705.825 492.518 L 704.017 494.796 L 702.190 497.072 L 700.343 499.347 L 698.477 501.620 L 696.593 503.891 L 694.689 506.159 L 692.768 508.425 L 690.828 510.687 L 688.870 512.946 L 686.894 515.202 L 684.901 517.454 L 682.890 519.701 L 680.862 521.944 L 678.817 524.183 L 676.755 526.417 L 674.677 528.645 L 672.582 530.868 L 670.472 533.085 L 668.345 535.296 L 666.203 537.501 L 664.046 539.699 L 661.874 541.890 L 659.687 544.074 L 657.485 546.251 L 655.269 548.420 L 653.039 550.581 L 650.795 552.734 L 648.538 554.879 L 646.267 557.014 L 643.983 559.141 L 641.687 561.258 L 639.378 563.366 L 637.057 565.464 L 634.724 567.553 L 632.379 569.630 L 630.024 571.698 L 627.657 573.754 L 625.279 575.800 L 622.891 577.834 L 620.492 579.856 L 618.084 581.867 L 615.666 583.866 L 613.239 585.852 L 610.803 587.826 L 608.358 589.787 L 605.904 591.735 L 603.443 593.670 L 600.974 595.591 L 598.497 597.499 L 596.013 599.393 L 593.522 601.273 L 591.024 603.138 L 588.520 604.989 L 586.010 606.825 L 583.495 608.646 L 580.974 610.451 L 578.448 612.242 L 575.917 614.016 L 573.382 615.775 L 570.843 617.518 L 568.300 619.244 L 565.753 620.954 L 563.203 622.648 L 560.650 624.325 L 558.095 625.984 L 555.537 627.627 L 552.977 629.252 L 550.416 630.860 L 547.853 632.450 L 545.290 634.022 L 542.725 635.576 L 540.160 637.112 L 537.595 638.630 L 535.031 640.129 L 532.466 641.609 L 529.903 643.071 L 527.340 644.513 L 524.779 645.937 L 522.220 647.342 L 519.663 648.727 L 517.108 650.092 L 514.555 651.438 L 512.006 652.764 L 509.459 654.071 L 506.917 655.357 L 504.378 656.624 L 501.843 657.870 L 499.312 659.096 L 496.786 660.301 L 494.265 661.486 L 491.749 662.651 L 489.238 663.794 L 486.734 664.917 L 484.235 666.019 L 481.743 667.101 L 479.257 668.161 L 476.778 669.200 L 474.307 670.218 L 471.843 671.215 L 469.386 672.190 L 466.937 673.144 L 464.497 674.077 L 462.065 674.988 L 459.641 675.878 L 457.227 676.747 L 454.822 677.593 L 452.426 678.418 L 450.040 679.222 L 447.664 680.004 L 445.298 680.764 L 442.942 681.502 L 440.597 682.219 L 438.263 682.914 L 435.940 683.587 L 433.628 684.239 L 431.328 684.868 L 429.040 685.476 L 426.763 686.062 L 424.499 686.626 L 422.247 687.169 L 420.008 687.690 L 417.782 688.189 L 415.568 688.666 L 413.368 689.121 L 411.181 689.555 L 409.008 689.967 L 406.849 690.358 L 404.703 690.727 L 402.572 691.074 L 400.455 691.400 L 398.352 691.704 L 396.264 691.987 L 394.191 692.248 L 392.134 692.488 L 390.091 692.707 L 388.063 692.904 L 386.051 693.081 L 384.055 693.236 L 382.075 693.370 L 380.110 693.483 L 378.161 693.575 L 376.229 693.646 L 374.313 693.696 L 372.414 693.726 L 370.531 693.735 L 368.665 693.723 L 366.816 693.691 L 364.984 693.638 L 363.169 693.565 L 361.371 693.472 L 359.591 693.359 L 357.828 693.225 L 356.083 693.072 L 354.355 692.898 L 352.645 692.705 L 350.953 692.492 L 349.279 692.260 L 347.623 692.008 L 345.985 691.737 L 344.365 691.446 L 342.764 691.136 L 341.181 690.808 L 339.616 690.460 L 338.070 690.093 L 336.543 689.708 L 335.034 689.304 L 333.545 688.881 L 332.073 688.440 L 330.621 687.981 L 329.188 687.504 L 327.774 687.008 L 326.378 686.495 L 325.002 685.964 L 323.645 685.415 L 322.307 684.849 L 320.988 684.265 L 319.689 683.664 L 318.409 683.046 L 317.148 682.411 L 315.906 681.759 L 314.684 681.090 L 313.481 680.404 L 312.298 679.702 L 311.134 678.984 L 309.990 678.250 L 308.865 677.499 L 307.759 676.732 L 306.673 675.950 L 305.607 675.152 L 304.560 674.338 L 303.533 673.509 L 302.525 672.665 L 301.537 671.805 L 300.568 670.931 L 299.619 670.042 L 298.689 669.138 L 297.779 668.219 L 296.888 667.286 L 296.017 666.339 L 295.165 665.377 L 294.333 664.402 L 293.520 663.412 L 292.727 662.409 L 291.953 661.393 L 291.198 660.363 L 290.463 659.319 L 289.747 658.263 L 289.051 657.193 L 288.373 656.111 L 287.715 655.016 L 287.077 653.908 L 286.457 652.788 L 285.857 651.656 L 285.275 650.511 L 284.713 649.354 L 284.170 648.186 L 283.646 647.006 L 283.140 645.814 L 282.654 644.611 L 282.187 643.396 L 281.738 642.171 L 281.308 640.934 L 280.897 639.686 L 280.505 638.428 L 280.131 637.159 L 279.776 635.880 L 279.439 634.590 L 279.121 633.290 L 278.821 631.980 L 278.539 630.661 L 278.276 629.331 L 278.031 627.992 L 277.805 626.643 L 277.596 625.285 L 277.405 623.918 L 277.233 622.542 L 277.078 621.156 L 276.941 619.762 L 276.822 618.360 L 276.721 616.948 L 276.638 615.529 L 276.572 614.101 L 276.523 612.665 L 276.492 611.221 L 276.479 609.769 L 276.483 608.309 L 276.504 606.842 L 276.542 605.367 L 276.597 603.885 L 276.670 602.395 L 276.759 600.899 L 276.865 599.396 L 276.988 597.885 L 277.128 596.368 L 277.285 594.845 L 277.458 593.315 L 277.647 591.779 L 277.853 590.236 L 278.076 588.687 L 278.314 587.133 L 278.569 585.572 L 278.840 584.006 L 279.127 582.435 L 279.431 580.857 L 279.749 579.275 L 280.084 577.687 L 280.435 576.094 L 280.801 574.496 L 281.183 572.893 L 281.580 571.286 L 281.992 569.674 L 282.420 568.057 L 282.863 566.436 L 283.322 564.810 L 283.795 563.180 L 284.284 561.547 L 284.787 559.909 L 285.305 558.267 L 285.838 556.622 L 286.386 554.973 L 286.948 553.320 L 287.525 551.664 L 288.116 550.005 L 288.721 548.343 L 289.341 546.677 L 289.975 545.008 L 290.623 543.337 L 291.285 541.663 L 291.961 539.986 L 292.650 538.306 L 293.354 536.625 L 294.071 534.940 L 294.801 533.254 L 295.546 531.565 L 296.303 529.874 L 297.074 528.181 L 297.858 526.487 L 298.656 524.790 L 299.466 523.092 L 300.290 521.393 L 301.126 519.692 L 301.975 517.989 L 302.837 516.285 L 303.712 514.580 L 304.599 512.874 L 305.498 511.167 L 306.411 509.459 L 307.335 507.750 L 308.272 506.041 L 309.220 504.331 L 310.181 502.620 L 311.154 500.909 L 312.139 499.198 L 313.135 497.486 L 314.144 495.774 L 315.164 494.062 L 316.195 492.350 L 317.238 490.638 L 318.293 488.926 L 319.359 487.215 L 320.436 485.504 L 321.524 483.793 L 322.624 482.083 L 323.734 480.373 L 324.855 478.664 L 325.987 476.956 L 327.130 475.249 L 328.284 473.543 L 329.448 471.837 L 330.623 470.133 L 331.808 468.430 L 333.003 466.728 L 334.209 465.028 L 335.425 463.328 L 336.651 461.631 L 337.888 459.935 L 339.134 458.240 L 340.390 456.548 L 341.655 454.857 L 342.931 453.168 L 344.216 451.481 L 345.511 449.796 L 346.815 448.113 L 348.129 446.433 L 349.452 444.754 L 350.784 443.078 L 352.125 441.404 L 353.476 439.733 L 354.835 438.065 L 356.204 436.399 L 357.581 434.735 L 358.967 433.075 L 360.362 431.417 L 361.765 429.762 L 363.177 428.111 L 364.597 426.462 L 366.026 424.817 L 367.463 423.174 L 368.909 421.535 L 370.362 419.899 L 371.824 418.267 L 373.293 416.638 L 374.771 415.013 L 376.256 413.392 L 377.750 411.774 L 379.250 410.160 L 380.759 408.549 L 382.275 406.943 L 383.799 405.340 L 385.330 403.742 L 386.868 402.148 L 388.413 400.557 L 389.966 398.972 L 391.526 397.390 L 393.093 395.813 L 394.667 394.240 L 396.247 392.672 L 397.835 391.108 L 399.429 389.549 L 401.030 387.994 L 402.637 386.445 L 404.251 384.900 L 405.872 383.360 L 407.498 381.825 L 409.131 380.295 L 410.770 378.771 L 412.416 377.251 L 414.067 375.736 L 415.724 374.227 L 417.388 372.724 L 419.057 371.225 L 420.731 369.732 L 422.412 368.245 L 424.098 366.763 L 425.789 365.287 L 427.487 363.817 L 429.189 362.352 L 430.897 360.893 L 432.610 359.441 L 434.328 357.994 L 436.051 356.553 L 437.779 355.118 L 439.512 353.690 L 441.250 352.268 L 442.993 350.852 L 444.740 349.442 L 446.492 348.039 L 448.249 346.642 L 450.010 345.252 L 451.775 343.869 L 453.545 342.492 L 455.319 341.122 L 457.097 339.759 L 458.880 338.402 L 460.666 337.053 L 462.456 335.710 L 464.250 334.375 L 466.048 333.046 L 467.850 331.725 L 469.655 330.411 L 471.464 329.105 L 473.276 327.805 L 475.091 326.514 L 476.910 325.229 L 478.732 323.953 L 480.558 322.683 L 482.386 321.422 L 484.218 320.168 L 486.052 318.922 L 487.889 317.684 L 489.729 316.454 L 491.572 315.232 L 493.417 314.018 L 495.265 312.812 L 497.115 311.614 L 498.968 310.424 L 500.823 309.243 L 502.680 308.070 L 504.539 306.906 L 506.400 305.750 L 508.264 304.602 L 510.129 303.464 L 511.996 302.334 L 513.864 301.212 L 515.735 300.100 L 517.606 298.996 L 519.480 297.901 L 521.354 296.816 L 523.230 295.739 L 525.108 294.671 L 526.986 293.613 L 528.865 292.564 L 530.745 291.524 L 532.627 290.494 L 534.509 289.473 L 536.391 288.462 L 538.274 287.460 L 540.158 286.468 L 542.042 285.485 L 543.927 284.512 L 545.812 283.550 L 547.697 282.597 L 549.582 281.654 L 551.467 280.721 L 553.352 279.798 L 555.236 278.885 L 557.121 277.983 L 559.005 277.090 L 560.888 276.209 L 562.771 275.337 L 564.654 274.476 L 566.535 273.626 L 568.416 272.786 L 570.296 271.957 L 572.175 271.139 L 574.052 270.331 L 575.929 269.535 L 577.804 268.749 L 579.678 267.974 L 581.550 267.211 L 583.420 266.458 L 585.289 265.717 L 587.156 264.987 L 589.021 264.268 L 590.885 263.561 L 592.746 262.865 L 594.604 262.181 L 596.461 261.508 L 598.315 260.847 L 600.166 260.198 L 602.015 259.561 L 603.861 258.935 L 605.705 258.322 L 607.545 257.720 L 609.382 257.130 L 611.217 256.553 L 613.047 255.988 L 614.875 255.435 L 616.699 254.894 L 618.520 254.366 L 620.336 253.850 L 622.149 253.347 L 623.958 252.856 L 625.764 252.378 L 627.564 251.913 L 629.361 251.460 L 631.153 251.021 L 632.941 250.594 L 634.725 250.180 L 636.503 249.780 L 638.277 249.392 L 640.046 249.018 L 641.809 248.656 L 643.568 248.309 L 645.321 247.974 L 647.069 247.653 L 648.811 247.346 L 650.548 247.052 L 652.279 246.771 L 654.004 246.504 L 655.723 246.252 L 657.436 246.012 L 659.143 245.787 L 660.843 245.576 L 662.537 245.379 L 664.224 245.195 L 665.904 245.026 L 667.578 244.871 L 669.244 244.731 L 670.904 244.604 L 672.556 244.492 L 674.201 244.395 L 675.838 244.311 L 677.467 244.243 L 679.089 244.189 L 680.703 244.150 L 682.309 244.125 L 683.907 244.115 L 685.496 244.120 L 687.077 244.140 L 688.650 244.175 L 690.213 244.225 L 691.768 244.290 L 693.314 244.370 L 694.851 244.465 L 696.378 244.576 L 697.897 244.701 L 699.405 244.843 L 700.904 244.999 L 702.393 245.171 L 703.873 245.358 L 705.342 245.561 L 706.801 245.779 L 708.250 246.014 L 709.688 246.263 L 711.115 246.529 L 712.532 246.810 L 713.938 247.107 L 715.333 247.420 L 716.716 247.749 L 718.088 248.093 L 719.449 248.454 L 720.798 248.831 L 722.136 249.224 L 723.461 249.633 L 724.774 250.058 L 726.076 250.499 L 727.364 250.957 L 728.641 251.430 L 729.904 251.920 L 731.155 252.427 L 732.393 252.949 L 733.618 253.489 L 734.830 254.044 L 736.028 254.616 L 737.213 255.205 L 738.384 255.810 L 739.541 256.431 L 740.684 257.069 L 741.813 257.724 Z" fill="none" stroke="#2FB4FF" stroke-opacity="0.95" stroke-width="8" stroke-linecap="round"/>
  <path d="M 676.700 312.361 L 677.431 312.898 L 678.151 313.447 L 678.860 314.008 L 679.557 314.580 L 680.244 315.164 L 680.918 315.760 L 681.582 316.367 L 682.233 316.985 L 682.873 317.616 L 683.501 318.257 L 684.117 318.911 L 684.721 319.576 L 685.313 320.252 L 685.893 320.940 L 686.461 321.639 L 687.016 322.350 L 687.559 323.072 L 688.090 323.805 L 688.608 324.550 L 689.113 325.306 L 689.605 326.074 L 690.085 326.853 L 690.552 327.643 L 691.006 328.444 L 691.446 329.257 L 691.874 330.081 L 692.289 330.916 L 692.690 331.762 L 693.078 332.619 L 693.452 333.487 L 693.813 334.366 L 694.160 335.256 L 694.494 336.157 L 694.814 337.069 L 695.120 337.992 L 695.412 338.925 L 695.691 339.870 L 695.955 340.825 L 696.206 341.790 L 696.442 342.767 L 696.664 343.753 L 696.872 344.751 L 697.066 345.758 L 697.245 346.776 L 697.410 347.805 L 697.560 348.843 L 697.696 349.892 L 697.817 350.951 L 697.924 352.020 L 698.015 353.100 L 698.093 354.189 L 698.155 355.288 L 698.202 356.396 L 698.235 357.515 L 698.253 358.643 L 698.255 359.781 L 698.243 360.929 L 698.216 362.085 L 698.173 363.252 L 698.115 364.427 L 698.042 365.612 L 697.954 366.806 L 697.851 368.009 L 697.732 369.221 L 697.598 370.441 L 697.449 371.671 L 697.284 372.909 L 697.104 374.156 L 696.908 375.412 L 696.697 376.676 L 696.471 377.948 L 696.228 379.228 L 695.971 380.517 L 695.698 381.814 L 695.409 383.118 L 695.105 384.431 L 694.785 385.751 L 694.449 387.079 L 694.098 388.415 L 693.731 389.758 L 693.349 391.108 L 692.951 392.465 L 692.537 393.830 L 692.108 395.201 L 691.663 396.580 L 691.203 397.965 L 690.726 399.357 L 690.235 400.755 L 689.727 402.160 L 689.204 403.571 L 688.666 404.988 L 688.112 406.411 L 687.542 407.841 L 686.957 409.275 L 686.356 410.716 L 685.740 412.162 L 685.109 413.614 L 684.461 415.071 L 683.799 416.533 L 683.121 418.000 L 682.428 419.472 L 681.720 420.948 L 680.996 422.430 L 680.257 423.915 L 679.503 425.405 L 678.733 426.900 L 677.949 428.398 L 677.150 429.900 L 676.335 431.406 L 675.506 432.916 L 674.662 434.429 L 673.803 435.945 L 672.929 437.465 L 672.040 438.987 L 671.137 440.513 L 670.219 442.041 L 669.287 443.572 L 668.340 445.105 L 667.379 446.641 L 666.403 448.178 L 665.413 449.718 L 664.409 451.259 L 663.391 452.802 L 662.359 454.347 L 661.313 455.893 L 660.254 457.440 L 659.180 458.989 L 658.093 460.538 L 656.992 462.088 L 655.878 463.638 L 654.750 465.189 L 653.610 466.740 L 652.456 468.291 L 651.288 469.842 L 650.108 471.393 L 648.915 472.943 L 647.710 474.493 L 646.491 476.042 L 645.260 477.591 L 644.017 479.138 L 642.762 480.684 L 641.494 482.228 L 640.214 483.772 L 638.922 485.313 L 637.618 486.852 L 636.303 488.390 L 634.976 489.925 L 633.637 491.458 L 632.288 492.988 L 630.927 494.516 L 629.555 496.041 L 628.172 497.563 L 626.778 499.081 L 625.374 500.596 L 623.959 502.108 L 622.534 503.616 L 621.098 505.120 L 619.653 506.621 L 618.197 508.117 L 616.732 509.608 L 615.257 511.096 L 613.773 512.578 L 612.279 514.056 L 610.776 515.529 L 609.265 516.997 L 607.744 518.459 L 606.214 519.916 L 604.676 521.367 L 603.130 522.813 L 601.576 524.253 L 600.013 525.686 L 598.443 527.114 L 596.864 528.535 L 595.279 529.949 L 593.685 531.357 L 592.085 532.758 L 590.478 534.152 L 588.863 535.539 L 587.242 536.919 L 585.615 538.291 L 583.981 539.655 L 582.341 541.012 L 580.695 542.361 L 579.043 543.702 L 577.385 545.035 L 575.722 546.359 L 574.054 547.675 L 572.380 548.983 L 570.702 550.281 L 569.019 551.571 L 567.331 552.852 L 565.639 554.124 L 563.942 555.387 L 562.242 556.640 L 560.538 557.883 L 558.830 559.117 L 557.118 560.342 L 555.403 561.556 L 553.686 562.760 L 551.965 563.955 L 550.241 565.138 L 548.515 566.312 L 546.787 567.475 L 545.056 568.627 L 543.324 569.769 L 541.589 570.900 L 539.853 572.020 L 538.115 573.129 L 536.377 574.226 L 534.637 575.313 L 532.896 576.388 L 531.155 577.451 L 529.413 578.503 L 527.670 579.543 L 525.928 580.572 L 524.185 581.588 L 522.443 582.593 L 520.701 583.586 L 518.960 584.566 L 517.219 585.534 L 515.480 586.490 L 513.741 587.433 L 512.004 588.364 L 510.268 589.282 L 508.534 590.188 L 506.802 591.081 L 505.072 591.961 L 503.344 592.828 L 501.618 593.682 L 499.895 594.523 L 498.175 595.351 L 496.457 596.166 L 494.743 596.968 L 493.032 597.756 L 491.324 598.531 L 489.620 599.293 L 487.920 600.041 L 486.223 600.775 L 484.531 601.496 L 482.843 602.204 L 481.159 602.897 L 479.480 603.577 L 477.805 604.244 L 476.136 604.896 L 474.471 605.534 L 472.812 606.159 L 471.159 606.770 L 469.510 607.367 L 467.868 607.949 L 466.231 608.518 L 464.600 609.073 L 462.976 609.613 L 461.358 610.140 L 459.746 610.652 L 458.141 611.150 L 456.543 611.634 L 454.951 612.104 L 453.367 612.559 L 451.789 613.000 L 450.220 613.427 L 448.657 613.840 L 447.102 614.239 L 445.555 614.623 L 444.016 614.993 L 442.485 615.349 L 440.962 615.690 L 439.447 616.017 L 437.941 616.330 L 436.443 616.628 L 434.954 616.913 L 433.473 617.183 L 432.002 617.438 L 430.539 617.680 L 429.086 617.907 L 427.642 618.120 L 426.207 618.319 L 424.782 618.503 L 423.366 618.674 L 421.960 618.830 L 420.564 618.972 L 419.178 619.100 L 417.802 619.214 L 416.436 619.314 L 415.080 619.400 L 413.734 619.471 L 412.399 619.529 L 411.075 619.573 L 409.761 619.603 L 408.458 619.619 L 407.166 619.621 L 405.884 619.610 L 404.614 619.584 L 403.355 619.545 L 402.107 619.492 L 400.870 619.426 L 399.644 619.346 L 398.430 619.252 L 397.228 619.145 L 396.036 619.025 L 394.857 618.891 L 393.689 618.744 L 392.533 618.583 L 391.389 618.409 L 390.257 618.222 L 389.137 618.022 L 388.029 617.809 L 386.933 617.582 L 385.850 617.343 L 384.778 617.091 L 383.719 616.826 L 382.672 616.548 L 381.638 616.257 L 380.616 615.954 L 379.607 615.638 L 378.610 615.310 L 377.626 614.969 L 376.654 614.615 L 375.695 614.250 L 374.749 613.872 L 373.816 613.482 L 372.896 613.080 L 371.988 612.665 L 371.094 612.239 L 370.212 611.801 L 369.344 611.351 L 368.488 610.889 L 367.646 610.416 L 366.816 609.930 L 366.000 609.434 L 365.197 608.926 L 364.407 608.406 L 363.630 607.875 L 362.867 607.333 L 362.116 606.780 L 361.379 606.216 L 360.656 605.641 L 359.945 605.055 L 359.248 604.458 L 358.564 603.850 L 357.894 603.232 L 357.237 602.603 L 356.593 601.964 L 355.963 601.314 L 355.346 600.654 L 354.743 599.984 L 354.153 599.303 L 353.576 598.613 L 353.013 597.912 L 352.463 597.202 L 351.927 596.481 L 351.404 595.751 L 350.894 595.012 L 350.398 594.263 L 349.915 593.504 L 349.446 592.736 L 348.990 591.959 L 348.548 591.173 L 348.119 590.377 L 347.703 589.573 L 347.300 588.759 L 346.911 587.937 L 346.536 587.106 L 346.174 586.266 L 345.825 585.418 L 345.489 584.562 L 345.167 583.697 L 344.857 582.823 L 344.562 581.942 L 344.279 581.052 L 344.010 580.154 L 343.753 579.249 L 343.510 578.335 L 343.281 577.414 L 343.064 576.485 L 342.860 575.549 L 342.670 574.605 L 342.492 573.654 L 342.328 572.695 L 342.176 571.729 L 342.038 570.757 L 341.912 569.777 L 341.800 568.790 L 341.700 567.796 L 341.613 566.796 L 341.539 565.789 L 341.478 564.775 L 341.429 563.755 L 341.394 562.729 L 341.371 561.696 L 341.360 560.657 L 341.362 559.612 L 341.377 558.561 L 341.404 557.504 L 341.444 556.441 L 341.496 555.372 L 341.561 554.298 L 341.638 553.218 L 341.728 552.133 L 341.829 551.042 L 341.943 549.946 L 342.070 548.845 L 342.208 547.739 L 342.358 546.627 L 342.521 545.511 L 342.696 544.390 L 342.882 543.264 L 343.081 542.133 L 343.292 540.997 L 343.514 539.858 L 343.748 538.713 L 343.994 537.565 L 344.252 536.412 L 344.521 535.255 L 344.802 534.094 L 345.095 532.929 L 345.399 531.760 L 345.715 530.587 L 346.042 529.410 L 346.380 528.230 L 346.730 527.046 L 347.091 525.859 L 347.463 524.668 L 347.847 523.474 L 348.241 522.276 L 348.647 521.076 L 349.064 519.872 L 349.491 518.666 L 349.930 517.456 L 350.379 516.244 L 350.839 515.029 L 351.310 513.811 L 351.792 512.591 L 352.284 511.368 L 352.787 510.143 L 353.301 508.916 L 353.825 507.686 L 354.359 506.454 L 354.904 505.220 L 355.459 503.984 L 356.024 502.745 L 356.599 501.506 L 357.185 500.264 L 357.780 499.020 L 358.386 497.775 L 359.002 496.529 L 359.627 495.281 L 360.263 494.031 L 360.908 492.780 L 361.563 491.528 L 362.228 490.275 L 362.902 489.021 L 363.586 487.765 L 364.279 486.509 L 364.982 485.252 L 365.694 483.994 L 366.415 482.735 L 367.146 481.476 L 367.886 480.216 L 368.635 478.956 L 369.393 477.695 L 370.160 476.433 L 370.936 475.172 L 371.721 473.910 L 372.515 472.648 L 373.318 471.387 L 374.129 470.125 L 374.949 468.863 L 375.778 467.601 L 376.615 466.340 L 377.461 465.079 L 378.315 463.818 L 379.177 462.557 L 380.048 461.297 L 380.927 460.038 L 381.814 458.779 L 382.710 457.521 L 383.613 456.264 L 384.524 455.008 L 385.443 453.752 L 386.370 452.498 L 387.305 451.244 L 388.248 449.992 L 389.198 448.741 L 390.156 447.491 L 391.122 446.242 L 392.095 444.995 L 393.075 443.749 L 394.063 442.505 L 395.058 441.263 L 396.060 440.021 L 397.070 438.782 L 398.086 437.545 L 399.110 436.309 L 400.140 435.075 L 401.178 433.843 L 402.222 432.613 L 403.274 431.385 L 404.332 430.160 L 405.396 428.936 L 406.467 427.715 L 407.545 426.496 L 408.630 425.280 L 409.720 424.066 L 410.817 422.855 L 411.921 421.646 L 413.030 420.440 L 414.146 419.236 L 415.268 418.036 L 416.396 416.838 L 417.529 415.643 L 418.669 414.451 L 419.815 413.262 L 420.966 412.076 L 422.123 410.894 L 423.286 409.714 L 424.454 408.538 L 425.628 407.365 L 426.807 406.196 L 427.992 405.029 L 429.182 403.867 L 430.377 402.708 L 431.578 401.552 L 432.783 400.401 L 433.994 399.253 L 435.210 398.108 L 436.430 396.968 L 437.656 395.831 L 438.886 394.699 L 440.121 393.570 L 441.361 392.446 L 442.605 391.326 L 443.854 390.210 L 445.107 389.098 L 446.365 387.990 L 447.627 386.887 L 448.894 385.789 L 450.164 384.694 L 451.439 383.605 L 452.718 382.520 L 454.001 381.439 L 455.288 380.363 L 456.578 379.292 L 457.873 378.226 L 459.171 377.165 L 460.473 376.109 L 461.778 375.057 L 463.087 374.011 L 464.400 372.970 L 465.716 371.934 L 467.035 370.903 L 468.358 369.877 L 469.684 368.857 L 471.013 367.842 L 472.345 366.832 L 473.680 365.828 L 475.018 364.830 L 476.358 363.837 L 477.702 362.849 L 479.048 361.868 L 480.397 360.892 L 481.749 359.922 L 483.103 358.958 L 484.460 357.999 L 485.819 357.047 L 487.180 356.101 L 488.543 355.161 L 489.909 354.226 L 491.277 353.299 L 492.646 352.377 L 494.018 351.461 L 495.392 350.552 L 496.767 349.649 L 498.145 348.753 L 499.523 347.863 L 500.904 346.980 L 502.286 346.103 L 503.669 345.233 L 505.054 344.370 L 506.440 343.514 L 507.828 342.664 L 509.216 341.821 L 510.606 340.985 L 511.997 340.156 L 513.388 339.334 L 514.781 338.519 L 516.174 337.711 L 517.568 336.910 L 518.963 336.117 L 520.358 335.330 L 521.754 334.552 L 523.151 333.780 L 524.547 333.016 L 525.944 332.259 L 527.341 331.510 L 528.738 330.768 L 530.136 330.034 L 531.533 329.308 L 532.930 328.589 L 534.327 327.879 L 535.724 327.176 L 537.120 326.480 L 538.516 325.793 L 539.912 325.114 L 541.307 324.443 L 542.701 323.779 L 544.095 323.124 L 545.488 322.477 L 546.879 321.839 L 548.270 321.208 L 549.660 320.586 L 551.049 319.972 L 552.437 319.367 L 553.823 318.770 L 555.208 318.181 L 556.592 317.601 L 557.974 317.030 L 559.355 316.467 L 560.734 315.913 L 562.111 315.368 L 563.486 314.831 L 564.859 314.304 L 566.231 313.785 L 567.600 313.275 L 568.967 312.774 L 570.332 312.282 L 571.694 311.799 L 573.054 311.326 L 574.412 310.861 L 575.767 310.406 L 577.119 309.959 L 578.469 309.522 L 579.816 309.095 L 581.160 308.677 L 582.500 308.268 L 583.838 307.869 L 585.173 307.479 L 586.504 307.098 L 587.832 306.728 L 589.157 306.367 L 590.478 306.015 L 591.795 305.674 L 593.109 305.342 L 594.419 305.020 L 595.725 304.707 L 597.027 304.405 L 598.325 304.112 L 599.619 303.830 L 600.909 303.558 L 602.194 303.295 L 603.475 303.043 L 604.751 302.800 L 606.023 302.568 L 607.290 302.347 L 608.553 302.135 L 609.811 301.934 L 611.063 301.743 L 612.311 301.562 L 613.553 301.392 L 614.791 301.232 L 616.023 301.082 L 617.249 300.944 L 618.470 300.815 L 619.686 300.697 L 620.896 300.590 L 622.100 300.494 L 623.298 300.408 L 624.490 300.333 L 625.677 300.268 L 626.857 300.215 L 628.031 300.172 L 629.198 300.140 L 630.359 300.119 L 631.514 300.109 L 632.662 300.110 L 633.803 300.121 L 634.938 300.144 L 636.066 300.178 L 637.186 300.222 L 638.300 300.278 L 639.406 300.345 L 640.506 300.423 L 641.597 300.512 L 642.682 300.613 L 643.759 300.724 L 644.828 300.847 L 645.889 300.981 L 646.943 301.127 L 647.989 301.283 L 649.026 301.451 L 650.056 301.631 L 651.077 301.821 L 652.090 302.023 L 653.095 302.237 L 654.091 302.462 L 655.079 302.698 L 656.057 302.946 L 657.028 303.205 L 657.989 303.476 L 658.941 303.758 L 659.884 304.052 L 660.818 304.357 L 661.743 304.674 L 662.658 305.002 L 663.564 305.342 L 664.461 305.694 L 665.348 306.057 L 666.225 306.432 L 667.092 306.818 L 667.949 307.216 L 668.797 307.626 L 669.634 308.047 L 670.461 308.480 L 671.278 308.924 L 672.084 309.380 L 672.880 309.848 L 673.666 310.327 L 674.440 310.818 L 675.204 311.321 L 675.957 311.835 L 676.700 312.361 Z" fill="none" stroke="#2FB4FF" stroke-opacity="0.95" stroke-width="8" stroke-linecap="round"/>

  <text x="512.0" y="860.1600000000001" text-anchor="middle"
        font-family="Montserrat, Montserrat Alternates, system-ui, -apple-system, Segoe UI, Roboto, Ubuntu, Cantarell, Noto Sans, DejaVu Sans, Arial, sans-serif"
        font-weight="600"
        font-size="86.5"
        fill="#FFFFFF"
        letter-spacing="2">
    TUYOK
  </text>
</svg>
